<svg version="1.1" viewBox="0 0 96 96" xmlns="http://www.w3.org/2000/svg" xmlns:xlink="http://www.w3.org/1999/xlink" id="Icons_CloudComputing" overflow="hidden"><path d=" M 81.4 19.4 C 80.6 14.7 76.4 11.1 71.5 11.1 C 71 11.1 70.4 11.2 69.9 11.2 C 67.5 8.2 63.8 6.3 59.6 6.3 C 53.5 6.3 48.4 10.4 46.8 16 C 41.2 17.1 37 22 37 27.9 C 37 34.6 42.4 40 49 40 L 49 40 C 49 40 78.6 40 79 40 C 84.8 40 89.1 35.3 89.1 29.5 C 89.1 24.7 85.8 20.7 81.4 19.4 Z M 78.4 34 L 48.8 34 C 46.5 33.8 44.5 32.5 43.5 30.5 C 42.6 28.4 42.8 26 44.2 24.1 C 45.4 22.5 47.2 21.6 49.1 21.6 C 49.4 21.6 49.8 21.6 50.1 21.7 L 51.9 22 L 51.9 20 C 51.9 16.4 54.3 13.3 57.8 12.5 C 58.4 12.4 59 12.3 59.6 12.3 C 59.6 12.3 59.6 12.3 59.6 12.3 L 59.6 12.3 C 59.6 12.3 59.6 12.3 59.6 12.3 C 62.5 12.3 65.1 13.9 66.4 16.5 L 67 17.7 L 68.3 17.2 C 68.9 17 69.6 16.9 70.3 16.9 C 71.6 16.9 72.8 17.3 73.9 18 C 75.5 19.2 76.5 21.1 76.5 23.1 L 76.5 24.7 L 78.5 24.7 C 81.1 24.7 83.2 26.8 83.2 29.4 C 83.1 31.9 81 34 78.4 34 Z"/><path d=" M 51.8 44 L 10.2 44 C 8.4 44 7 45.4 7 47.2 L 7 75.8 C 7 77.6 8.4 79 10.2 79 C 10.2 79 10.2 79 10.2 79 L 26 79 L 26 83 L 19 83 L 19 89 L 43 89 L 43 83 L 36 83 L 36 79 L 51.8 79 C 53.6 79 55 77.6 55 75.8 L 55 75.8 L 55 47.2 C 55 45.4 53.6 44 51.8 44 Z M 49 73 L 13 73 L 13 50 L 49 50 L 49 73 Z"/><path d=" M 69.8 44 C 70.8 45.3 71.3 47 71.3 48.6 C 71.3 51.6 69.6 54.3 67 55.7 L 67 51.6 L 59.7 59 L 67 66.2 L 67 62.1 C 74.5 60.1 78.9 52.4 76.8 44.9 C 76.7 44.6 76.6 44.3 76.5 44 L 69.8 44 Z"/><path d=" M 22.9 40 C 22.1 39 21.4 37 21.4 35.4 C 21.4 32.4 23.1 29.7 25.7 28.3 L 25.7 32.4 L 33 25 L 25.7 17.8 L 25.7 21.9 C 18.2 23.9 13.8 31.6 15.9 39.1 C 16 39.4 16.1 39.7 16.2 40 L 22.9 40 Z"/></svg>